<mxfile host="app.diagrams.net" modified="2023-03-31T09:04:53.513Z" agent="Mozilla/5.0 (X11; Linux x86_64) AppleWebKit/537.36 (KHTML, like Gecko) Chrome/111.0.0.0 Safari/537.36" etag="CVGYgZv_aGvNBJkm0CkU" version="21.1.2" type="device">
  <diagram name="Page-1" id="edf60f1a-56cd-e834-aa8a-f176f3a09ee4">
    <mxGraphModel dx="1434" dy="773" grid="1" gridSize="10" guides="1" tooltips="1" connect="1" arrows="1" fold="1" page="1" pageScale="1" pageWidth="1100" pageHeight="850" background="none" math="0" shadow="0">
      <root>
        <mxCell id="0" />
        <mxCell id="1" parent="0" />
        <mxCell id="60e70716793133e9-10" value="Process SignUp" style="whiteSpace=wrap;html=1;rounded=0;shadow=1;labelBackgroundColor=none;strokeWidth=1;fontFamily=Verdana;fontSize=12;align=center;" parent="1" vertex="1">
          <mxGeometry x="717" y="315" width="120" height="40" as="geometry" />
        </mxCell>
        <mxCell id="60e70716793133e9-12" value="Username Input" style="whiteSpace=wrap;html=1;rounded=0;shadow=1;labelBackgroundColor=none;strokeWidth=1;fontFamily=Verdana;fontSize=12;align=center;spacing=6;" parent="1" vertex="1">
          <mxGeometry x="717" y="395" width="120" height="40" as="geometry" />
        </mxCell>
        <mxCell id="IGPop85an7Ez_ZWxW0Va-20" style="edgeStyle=orthogonalEdgeStyle;rounded=0;orthogonalLoop=1;jettySize=auto;html=1;entryX=0;entryY=0.5;entryDx=0;entryDy=0;" parent="1" source="60e70716793133e9-13" target="60e70716793133e9-10" edge="1">
          <mxGeometry relative="1" as="geometry">
            <mxPoint x="527" y="335" as="targetPoint" />
            <Array as="points">
              <mxPoint x="527" y="335" />
            </Array>
          </mxGeometry>
        </mxCell>
        <mxCell id="60e70716793133e9-13" value="&lt;font style=&quot;font-size: 12px;&quot;&gt;Display Specific &lt;br&gt;Error Message&lt;/font&gt;" style="whiteSpace=wrap;html=1;rounded=0;shadow=1;labelBackgroundColor=none;strokeWidth=1;fontFamily=Verdana;fontSize=8;align=center;" parent="1" vertex="1">
          <mxGeometry x="467" y="545" width="120" height="40" as="geometry" />
        </mxCell>
        <mxCell id="IGPop85an7Ez_ZWxW0Va-1" value="&lt;font style=&quot;font-size: 15px;&quot; face=&quot;Verdana&quot;&gt;Start&amp;nbsp;&lt;/font&gt;" style="ellipse;whiteSpace=wrap;html=1;" parent="1" vertex="1">
          <mxGeometry x="717" y="185" width="120" height="80" as="geometry" />
        </mxCell>
        <mxCell id="IGPop85an7Ez_ZWxW0Va-2" value="" style="endArrow=classic;html=1;rounded=0;exitX=0.5;exitY=1;exitDx=0;exitDy=0;entryX=0.5;entryY=0;entryDx=0;entryDy=0;" parent="1" source="IGPop85an7Ez_ZWxW0Va-1" target="60e70716793133e9-10" edge="1">
          <mxGeometry width="50" height="50" relative="1" as="geometry">
            <mxPoint x="717" y="605" as="sourcePoint" />
            <mxPoint x="777" y="305" as="targetPoint" />
          </mxGeometry>
        </mxCell>
        <mxCell id="IGPop85an7Ez_ZWxW0Va-4" value="" style="endArrow=classic;html=1;rounded=0;exitX=0.5;exitY=1;exitDx=0;exitDy=0;entryX=0.5;entryY=0;entryDx=0;entryDy=0;" parent="1" source="60e70716793133e9-10" target="60e70716793133e9-12" edge="1">
          <mxGeometry width="50" height="50" relative="1" as="geometry">
            <mxPoint x="757" y="435" as="sourcePoint" />
            <mxPoint x="807" y="385" as="targetPoint" />
          </mxGeometry>
        </mxCell>
        <mxCell id="IGPop85an7Ez_ZWxW0Va-5" value="Email Input" style="whiteSpace=wrap;html=1;rounded=0;shadow=1;labelBackgroundColor=none;strokeWidth=1;fontFamily=Verdana;fontSize=12;align=center;spacing=6;" parent="1" vertex="1">
          <mxGeometry x="717" y="475" width="120" height="40" as="geometry" />
        </mxCell>
        <mxCell id="IGPop85an7Ez_ZWxW0Va-6" value="" style="endArrow=classic;html=1;rounded=0;exitX=0.5;exitY=1;exitDx=0;exitDy=0;entryX=0.5;entryY=0;entryDx=0;entryDy=0;" parent="1" target="IGPop85an7Ez_ZWxW0Va-5" edge="1">
          <mxGeometry width="50" height="50" relative="1" as="geometry">
            <mxPoint x="777" y="435" as="sourcePoint" />
            <mxPoint x="807" y="465" as="targetPoint" />
          </mxGeometry>
        </mxCell>
        <mxCell id="IGPop85an7Ez_ZWxW0Va-7" value="Password Input" style="whiteSpace=wrap;html=1;rounded=0;shadow=1;labelBackgroundColor=none;strokeWidth=1;fontFamily=Verdana;fontSize=12;align=center;spacing=6;" parent="1" vertex="1">
          <mxGeometry x="717" y="555" width="120" height="40" as="geometry" />
        </mxCell>
        <mxCell id="IGPop85an7Ez_ZWxW0Va-8" value="" style="endArrow=classic;html=1;rounded=0;exitX=0.5;exitY=1;exitDx=0;exitDy=0;entryX=0.5;entryY=0;entryDx=0;entryDy=0;" parent="1" target="IGPop85an7Ez_ZWxW0Va-7" edge="1">
          <mxGeometry width="50" height="50" relative="1" as="geometry">
            <mxPoint x="777" y="515" as="sourcePoint" />
            <mxPoint x="807" y="545" as="targetPoint" />
          </mxGeometry>
        </mxCell>
        <mxCell id="IGPop85an7Ez_ZWxW0Va-12" value="SignUp Button" style="whiteSpace=wrap;html=1;rounded=0;shadow=1;labelBackgroundColor=none;strokeWidth=1;fontFamily=Verdana;fontSize=12;align=center;spacing=6;" parent="1" vertex="1">
          <mxGeometry x="717" y="635" width="120" height="40" as="geometry" />
        </mxCell>
        <mxCell id="IGPop85an7Ez_ZWxW0Va-13" value="" style="endArrow=classic;html=1;rounded=0;exitX=0.5;exitY=1;exitDx=0;exitDy=0;entryX=0.5;entryY=0;entryDx=0;entryDy=0;" parent="1" target="IGPop85an7Ez_ZWxW0Va-12" edge="1">
          <mxGeometry width="50" height="50" relative="1" as="geometry">
            <mxPoint x="777" y="595" as="sourcePoint" />
            <mxPoint x="807" y="625" as="targetPoint" />
          </mxGeometry>
        </mxCell>
        <mxCell id="IGPop85an7Ez_ZWxW0Va-18" style="edgeStyle=orthogonalEdgeStyle;rounded=0;orthogonalLoop=1;jettySize=auto;html=1;entryX=0.5;entryY=1;entryDx=0;entryDy=0;" parent="1" source="IGPop85an7Ez_ZWxW0Va-15" target="60e70716793133e9-13" edge="1">
          <mxGeometry relative="1" as="geometry" />
        </mxCell>
        <mxCell id="IGPop85an7Ez_ZWxW0Va-15" value="&lt;font style=&quot;font-size: 10px;&quot;&gt;Check if all Fields&lt;br&gt;where Filled&lt;/font&gt;" style="rhombus;whiteSpace=wrap;html=1;" parent="1" vertex="1">
          <mxGeometry x="707" y="715" width="140" height="80" as="geometry" />
        </mxCell>
        <mxCell id="IGPop85an7Ez_ZWxW0Va-17" value="" style="endArrow=classic;html=1;rounded=0;exitX=0.5;exitY=1;exitDx=0;exitDy=0;entryX=0.5;entryY=0;entryDx=0;entryDy=0;" parent="1" edge="1">
          <mxGeometry width="50" height="50" relative="1" as="geometry">
            <mxPoint x="776.6" y="675" as="sourcePoint" />
            <mxPoint x="776.6" y="715" as="targetPoint" />
          </mxGeometry>
        </mxCell>
        <mxCell id="IGPop85an7Ez_ZWxW0Va-19" value="Empty Field/s" style="text;html=1;align=center;verticalAlign=middle;resizable=0;points=[];autosize=1;strokeColor=none;fillColor=none;" parent="1" vertex="1">
          <mxGeometry x="590" y="730" width="100" height="30" as="geometry" />
        </mxCell>
        <mxCell id="IGPop85an7Ez_ZWxW0Va-21" value="&lt;font style=&quot;font-size: 12px;&quot;&gt;Display Specific&lt;br&gt;Error Message&lt;/font&gt;" style="whiteSpace=wrap;html=1;rounded=0;shadow=1;labelBackgroundColor=none;strokeWidth=1;fontFamily=Verdana;fontSize=8;align=center;" parent="1" vertex="1">
          <mxGeometry x="297" y="545" width="120" height="40" as="geometry" />
        </mxCell>
        <mxCell id="IGPop85an7Ez_ZWxW0Va-22" style="edgeStyle=orthogonalEdgeStyle;rounded=0;orthogonalLoop=1;jettySize=auto;html=1;entryX=0.5;entryY=1;entryDx=0;entryDy=0;" parent="1" source="IGPop85an7Ez_ZWxW0Va-23" target="IGPop85an7Ez_ZWxW0Va-21" edge="1">
          <mxGeometry relative="1" as="geometry">
            <mxPoint x="357" y="615" as="targetPoint" />
          </mxGeometry>
        </mxCell>
        <mxCell id="IGPop85an7Ez_ZWxW0Va-23" value="&lt;font style=&quot;font-size: 10px;&quot;&gt;Consistency check of&amp;nbsp;Username, Email &amp;amp; Password&amp;nbsp;&lt;/font&gt;" style="rhombus;whiteSpace=wrap;html=1;" parent="1" vertex="1">
          <mxGeometry x="707" y="835" width="140" height="95" as="geometry" />
        </mxCell>
        <mxCell id="IGPop85an7Ez_ZWxW0Va-24" value="Consistency Nok" style="text;html=1;align=center;verticalAlign=middle;resizable=0;points=[];autosize=1;strokeColor=none;fillColor=none;" parent="1" vertex="1">
          <mxGeometry x="580" y="855" width="110" height="30" as="geometry" />
        </mxCell>
        <mxCell id="IGPop85an7Ez_ZWxW0Va-26" value="" style="endArrow=classic;html=1;rounded=0;exitX=0.5;exitY=1;exitDx=0;exitDy=0;entryX=0.5;entryY=0;entryDx=0;entryDy=0;" parent="1" edge="1">
          <mxGeometry width="50" height="50" relative="1" as="geometry">
            <mxPoint x="776.6" y="795" as="sourcePoint" />
            <mxPoint x="776.6" y="835" as="targetPoint" />
          </mxGeometry>
        </mxCell>
        <mxCell id="IGPop85an7Ez_ZWxW0Va-33" value="Ok" style="edgeLabel;html=1;align=center;verticalAlign=middle;resizable=0;points=[];" parent="IGPop85an7Ez_ZWxW0Va-26" vertex="1" connectable="0">
          <mxGeometry x="-0.54" y="2" relative="1" as="geometry">
            <mxPoint x="11" y="10" as="offset" />
          </mxGeometry>
        </mxCell>
        <mxCell id="IGPop85an7Ez_ZWxW0Va-27" value="&lt;font style=&quot;font-size: 10px;&quot;&gt;Check if Username &lt;br&gt;or Email Already are in&lt;br&gt;&amp;nbsp;users.csv&lt;/font&gt;" style="rhombus;whiteSpace=wrap;html=1;" parent="1" vertex="1">
          <mxGeometry x="707" y="970" width="140" height="95" as="geometry" />
        </mxCell>
        <mxCell id="IGPop85an7Ez_ZWxW0Va-28" value="" style="endArrow=classic;html=1;rounded=0;exitX=0.5;exitY=1;exitDx=0;exitDy=0;entryX=0.5;entryY=0;entryDx=0;entryDy=0;" parent="1" edge="1">
          <mxGeometry width="50" height="50" relative="1" as="geometry">
            <mxPoint x="776.6" y="930" as="sourcePoint" />
            <mxPoint x="776.6" y="970" as="targetPoint" />
          </mxGeometry>
        </mxCell>
        <mxCell id="IGPop85an7Ez_ZWxW0Va-29" value="" style="endArrow=none;html=1;rounded=0;" parent="1" edge="1">
          <mxGeometry width="50" height="50" relative="1" as="geometry">
            <mxPoint x="357" y="545" as="sourcePoint" />
            <mxPoint x="710" y="335" as="targetPoint" />
            <Array as="points">
              <mxPoint x="357" y="335" />
            </Array>
          </mxGeometry>
        </mxCell>
        <mxCell id="IGPop85an7Ez_ZWxW0Va-30" value="&lt;font style=&quot;font-size: 12px;&quot;&gt;Display Specific&lt;br&gt;Error Message&lt;/font&gt;" style="whiteSpace=wrap;html=1;rounded=0;shadow=1;labelBackgroundColor=none;strokeWidth=1;fontFamily=Verdana;fontSize=8;align=center;" parent="1" vertex="1">
          <mxGeometry x="130" y="545" width="120" height="40" as="geometry" />
        </mxCell>
        <mxCell id="IGPop85an7Ez_ZWxW0Va-31" style="edgeStyle=orthogonalEdgeStyle;rounded=0;orthogonalLoop=1;jettySize=auto;html=1;entryX=0.5;entryY=1;entryDx=0;entryDy=0;exitX=0;exitY=0.5;exitDx=0;exitDy=0;" parent="1" source="IGPop85an7Ez_ZWxW0Va-27" target="IGPop85an7Ez_ZWxW0Va-30" edge="1">
          <mxGeometry relative="1" as="geometry">
            <mxPoint x="540" y="883" as="sourcePoint" />
            <mxPoint x="190" y="615" as="targetPoint" />
          </mxGeometry>
        </mxCell>
        <mxCell id="IGPop85an7Ez_ZWxW0Va-32" value="" style="endArrow=none;html=1;rounded=0;" parent="1" edge="1">
          <mxGeometry width="50" height="50" relative="1" as="geometry">
            <mxPoint x="190" y="545" as="sourcePoint" />
            <mxPoint x="543" y="335" as="targetPoint" />
            <Array as="points">
              <mxPoint x="190" y="335" />
            </Array>
          </mxGeometry>
        </mxCell>
        <mxCell id="IGPop85an7Ez_ZWxW0Va-34" value="Ok" style="edgeLabel;html=1;align=center;verticalAlign=middle;resizable=0;points=[];" parent="1" vertex="1" connectable="0">
          <mxGeometry x="799.5999999999999" y="834.9999999999999" as="geometry">
            <mxPoint x="-9" y="111" as="offset" />
          </mxGeometry>
        </mxCell>
        <mxCell id="IGPop85an7Ez_ZWxW0Va-35" value="Email or/and Username already in users.csv" style="text;html=1;align=center;verticalAlign=middle;resizable=0;points=[];autosize=1;strokeColor=none;fillColor=none;" parent="1" vertex="1">
          <mxGeometry x="440" y="985" width="260" height="30" as="geometry" />
        </mxCell>
        <mxCell id="IGPop85an7Ez_ZWxW0Va-36" value="Write Username,&lt;br&gt;Email &amp;amp; Password&lt;br&gt;to users.csv" style="rounded=0;whiteSpace=wrap;html=1;" parent="1" vertex="1">
          <mxGeometry x="717" y="1105" width="120" height="60" as="geometry" />
        </mxCell>
        <mxCell id="IGPop85an7Ez_ZWxW0Va-37" value="" style="endArrow=classic;html=1;rounded=0;exitX=0.5;exitY=1;exitDx=0;exitDy=0;entryX=0.5;entryY=0;entryDx=0;entryDy=0;" parent="1" edge="1">
          <mxGeometry width="50" height="50" relative="1" as="geometry">
            <mxPoint x="776.6" y="1065" as="sourcePoint" />
            <mxPoint x="776.6" y="1105" as="targetPoint" />
          </mxGeometry>
        </mxCell>
        <mxCell id="IGPop85an7Ez_ZWxW0Va-38" value="Go to Login Screen" style="rounded=0;whiteSpace=wrap;html=1;" parent="1" vertex="1">
          <mxGeometry x="720" y="1205" width="120" height="60" as="geometry" />
        </mxCell>
        <mxCell id="IGPop85an7Ez_ZWxW0Va-39" value="" style="endArrow=classic;html=1;rounded=0;exitX=0.5;exitY=1;exitDx=0;exitDy=0;entryX=0.5;entryY=0;entryDx=0;entryDy=0;" parent="1" edge="1">
          <mxGeometry width="50" height="50" relative="1" as="geometry">
            <mxPoint x="776.6" y="1165" as="sourcePoint" />
            <mxPoint x="776.6" y="1205" as="targetPoint" />
          </mxGeometry>
        </mxCell>
        <mxCell id="IGPop85an7Ez_ZWxW0Va-40" value="New Username and Password" style="text;html=1;align=center;verticalAlign=middle;resizable=0;points=[];autosize=1;strokeColor=none;fillColor=none;" parent="1" vertex="1">
          <mxGeometry x="770" y="1065" width="190" height="30" as="geometry" />
        </mxCell>
      </root>
    </mxGraphModel>
  </diagram>
</mxfile>
